<svg xmlns="http://www.w3.org/2000/svg" xml:space="preserve" style="enable-background:new 0 0 64 64" viewBox="0 0 64 64"><path d="M46.3 56.83H17.09c-9.14 0-19.61 1.06-16.55 2.58 4.18 2.08 21.02.21 14.21 2.74-6.1 2.27 10.36 2.45 16.35.56 4.67-1.47 14.31 1.99 17.91-1.28 2.97-2.7 10.19-1 13.84-2.02 5-1.38-7.41-2.58-16.55-2.58z" style="fill:#0098f2"/><linearGradient id="a" x1="31.689" x2="31.689" y1="60.001" y2=".001" gradientUnits="userSpaceOnUse"><stop offset="0" style="stop-color:#ff9500"/><stop offset=".192" style="stop-color:#ffad00"/><stop offset=".545" style="stop-color:#ffd500"/><stop offset=".827" style="stop-color:#ffed00"/><stop offset="1" style="stop-color:#fff600"/></linearGradient><circle cx="31.69" cy="30" r="30" style="fill:url(#a)"/><path d="M38.69 40.12c0 9.67-14 9.67-14 0v-1.24c0-9.67 14-9.67 14 0v1.24z" style="fill:#1a1626"/><linearGradient id="b" x1="27.021" x2="36.357" y1="34.483" y2="34.483" gradientUnits="userSpaceOnUse"><stop offset="0" style="stop-color:#cfd7e6"/><stop offset=".037" style="stop-color:#dae0ec"/><stop offset=".126" style="stop-color:#eef1f6"/><stop offset=".215" style="stop-color:#fbfcfd"/><stop offset=".3" style="stop-color:#fff"/><stop offset=".7" style="stop-color:#fff"/><stop offset=".785" style="stop-color:#fbfcfd"/><stop offset=".874" style="stop-color:#eef1f6"/><stop offset=".963" style="stop-color:#dae0ec"/><stop offset="1" style="stop-color:#cfd7e6"/></linearGradient><path d="M27.02 36c.93-1.81 2.67-3.04 4.67-3.04s3.74 1.22 4.67 3.04h-9.34z" style="fill:url(#b)"/><path d="M28.02 44.59c1.06.8 2.28 1.27 3.67 1.27 1.38 0 2.61-.47 3.67-1.27 0 0-1.83-2.34-3.67-.82-1.83-1.52-3.67.82-3.67.82z" style="fill:#fd7383"/><path d="M37.43 22.7c2.97-2.19 8.32-2.34 11.53 0 .74.54 1.97.16 1.7-.46-2.8-6.42-12.13-6.41-14.93 0-.28.62.96 1 1.7.46zm-11.47 0c-2.97-2.19-8.32-2.34-11.53 0-.74.54-1.97.16-1.7-.46 2.8-6.42 12.13-6.41 14.93 0 .27.62-.97 1-1.7.46z" style="fill:#1a1626"/><path d="M41.69 58.41c0 .5-.74.5-.74 0-.01-.5.74-.5.74 0z" style="fill:#75d6ff"/><linearGradient id="c" x1="49.222" x2="41.085" y1="18.899" y2="59.107" gradientUnits="userSpaceOnUse"><stop offset=".049" style="stop-color:#0078bd"/><stop offset=".06" style="stop-color:#2e94cd"/><stop offset=".073" style="stop-color:#5aafdc"/><stop offset=".087" style="stop-color:#7ec5e9"/><stop offset=".1" style="stop-color:#9bd6f2"/><stop offset=".113" style="stop-color:#afe2f9"/><stop offset=".126" style="stop-color:#bbeafe"/><stop offset=".139" style="stop-color:#bfecff"/><stop offset=".152" style="stop-color:#b0e8ff"/><stop offset=".176" style="stop-color:#9ae1ff"/><stop offset=".204" style="stop-color:#8adcff"/><stop offset=".239" style="stop-color:#7ed9ff"/><stop offset=".288" style="stop-color:#77d7ff"/><stop offset=".424" style="stop-color:#75d6ff"/><stop offset=".54" style="stop-color:#4abffa"/><stop offset=".665" style="stop-color:#22aaf6"/><stop offset=".764" style="stop-color:#099df3"/><stop offset=".824" style="stop-color:#0098f2"/></linearGradient><path d="M41.09 21.19c2.29 14.78 1.57 23.71-.6 38.5 2.31-.68 5.51.33 7.98-.95 3.36-9.81 3.82-26.02.94-35.83-1.37-2.41-7.62-3.31-8.32-1.72z" style="fill:url(#c)"/><path d="M50.27 56.95c0 2.08-3.12 2.08-3.12 0s3.12-2.08 3.12 0z" style="fill:#0098f2"/><path d="M52.24 57.64c0 1.59-2.39 1.59-2.39 0s2.39-1.6 2.39 0z" style="fill:#0098f2"/><radialGradient id="d" cx="213.353" cy="117.803" r="5.522" gradientTransform="matrix(-1.1164 0 0 1.2807 283.421 -91.773)" gradientUnits="userSpaceOnUse"><stop offset=".188" style="stop-color:#fff"/><stop offset=".952" style="stop-color:#fff;stop-opacity:0"/></radialGradient><path d="M38.72 59h13.02c.01-9.96-13.02-9.96-13.02 0z" style="fill:url(#d)"/><path d="M43.14 55.39c0 .76-1.13.76-1.13 0 0-.75 1.13-.75 1.13 0z" style="fill:#75d6ff"/><linearGradient id="e" x1="45.851" x2="45.851" y1="59.532" y2="56.442" gradientUnits="userSpaceOnUse"><stop offset=".067" style="stop-color:#0098f2"/><stop offset=".321" style="stop-color:#1ca7f5"/><stop offset=".868" style="stop-color:#63ccfd"/><stop offset="1" style="stop-color:#75d6ff"/></linearGradient><path d="M50.03 58.52c-.01-1.37-1.61-1.42-2.31-.63-.42-1.75-2.87-1.92-3.67-.5-.64-.79-2.68-.57-2.91.61-.5-.29-1.74.41-1.52 1.15.13.44 12.3.55 12.46.02.34-1.1-1.7-1.48-2.05-.65z" style="fill:url(#e)"/><path d="M50.82 57.46c0 .37-.55.37-.55 0-.01-.37.55-.37.55 0zm-5.26-3.64c0 .37-.55.37-.55 0 0-.36.55-.36.55 0zm.91 4.46c0 .37-.55.37-.55 0-.01-.37.55-.37.55 0zm5.99.28c0 .37-.55.37-.55 0s.55-.37.55 0zm-5.17-2.88c0 .55-.82.55-.82 0s.82-.55.82 0zm-4.87 3.29c0 .55-.82.55-.82 0s.82-.55.82 0z" style="fill:#75d6ff"/><linearGradient id="f" x1="210.397" x2="202.26" y1="18.898" y2="59.107" gradientTransform="matrix(-1 0 0 1 224.555 0)" gradientUnits="userSpaceOnUse"><stop offset=".049" style="stop-color:#0078bd"/><stop offset=".06" style="stop-color:#2e94cd"/><stop offset=".073" style="stop-color:#5aafdc"/><stop offset=".087" style="stop-color:#7ec5e9"/><stop offset=".1" style="stop-color:#9bd6f2"/><stop offset=".113" style="stop-color:#afe2f9"/><stop offset=".126" style="stop-color:#bbeafe"/><stop offset=".139" style="stop-color:#bfecff"/><stop offset=".152" style="stop-color:#b0e8ff"/><stop offset=".176" style="stop-color:#9ae1ff"/><stop offset=".204" style="stop-color:#8adcff"/><stop offset=".239" style="stop-color:#7ed9ff"/><stop offset=".288" style="stop-color:#77d7ff"/><stop offset=".424" style="stop-color:#75d6ff"/><stop offset=".54" style="stop-color:#4abffa"/><stop offset=".665" style="stop-color:#22aaf6"/><stop offset=".764" style="stop-color:#099df3"/><stop offset=".824" style="stop-color:#0098f2"/></linearGradient><path d="M22.29 21.19c-2.3 14.78-1.57 23.71.6 38.5-2.31-.68-5.51.33-7.99-.95-3.35-9.81-3.82-26.02-.94-35.83 1.38-2.41 7.63-3.31 8.33-1.72z" style="fill:url(#f)"/><path d="M13.13 56.95c0 2.08 3.12 2.08 3.12 0-.01-2.08-3.12-2.08-3.12 0z" style="fill:#0098f2"/><path d="M11.16 57.64c0 1.59 2.39 1.59 2.39 0s-2.39-1.6-2.39 0z" style="fill:#0098f2"/><radialGradient id="g" cx="68.994" cy="117.803" r="5.522" gradientTransform="matrix(1.1164 0 0 1.2807 -58.867 -91.773)" gradientUnits="userSpaceOnUse"><stop offset=".188" style="stop-color:#fff"/><stop offset=".952" style="stop-color:#fff;stop-opacity:0"/></radialGradient><path d="M24.67 59H11.65c0-9.96 13.02-9.96 13.02 0z" style="fill:url(#g)"/><path d="M19.22 55.42c0 .76 1.13.76 1.13 0 .01-.76-1.13-.76-1.13 0z" style="fill:#75d6ff"/><linearGradient id="h" x1="207.013" x2="207.013" y1="59.532" y2="56.442" gradientTransform="matrix(-1 0 0 1 224.555 0)" gradientUnits="userSpaceOnUse"><stop offset=".067" style="stop-color:#0098f2"/><stop offset=".321" style="stop-color:#1ca7f5"/><stop offset=".868" style="stop-color:#63ccfd"/><stop offset="1" style="stop-color:#75d6ff"/></linearGradient><path d="M13.36 58.52c.02-1.37 1.61-1.42 2.31-.63.42-1.75 2.87-1.92 3.67-.5.64-.79 2.68-.57 2.91.61.5-.29 1.74.41 1.52 1.15-.13.44-12.3.55-12.46.02-.33-1.1 1.7-1.48 2.05-.65z" style="fill:url(#h)"/><path d="M14.19 56.44c0 .37.55.37.55 0s-.55-.37-.55 0zm2-1.31c0 .37.55.37.55 0 .01-.37-.55-.37-.55 0zm4.03 3.38c0 .37.55.37.55 0 .01-.37-.55-.37-.55 0zm-9.22 0c0 .37.55.37.55 0s-.55-.37-.55 0zm5.75-.41c0 .55.82.55.82 0s-.82-.55-.82 0z" style="fill:#75d6ff"/><path d="M44.64 21.86c1.5 9.24 1.52 14.51 1.13 24.66-.02.44.15-.15.32-1.32.92-6.3.69-16.97-.87-23.06-.23-.91-.7-1.08-.58-.28zm3.41 2.36c1.61 8.61 1.69 13.54 1.42 23.02-.01.41.15-.14.3-1.24.85-5.9.48-15.87-1.14-21.53-.24-.85-.72-1-.58-.25zm-4.89 1.54c1.2 8.74 1.04 13.7.32 23.23-.03.41.16-.14.36-1.23 1.13-5.89 1.24-15.94-.11-21.72-.2-.86-.68-1.04-.57-.28zm4.46 5.92c.46 8.3-.11 12.95-1.63 21.84-.06.38.17-.12.46-1.13 1.62-5.44 2.57-14.86 1.71-20.4-.12-.82-.58-1.02-.54-.31zm-28.89-9.82c-1.5 9.24-1.51 14.51-1.13 24.66.02.44-.15-.15-.32-1.32-.92-6.3-.69-16.97.87-23.06.24-.91.71-1.08.58-.28zm-3.4 2.36c-1.61 8.61-1.69 13.54-1.42 23.02.01.41-.15-.14-.3-1.24-.85-5.9-.48-15.87 1.14-21.53.24-.85.72-1 .58-.25zm4.89 1.54c-1.2 8.74-1.04 13.7-.32 23.23.03.41-.15-.14-.36-1.23-1.13-5.89-1.24-15.94.11-21.72.2-.86.68-1.04.57-.28zm-4.46 5.92c-.46 8.3.11 12.95 1.63 21.84.07.38-.17-.12-.46-1.13-1.62-5.44-2.57-14.86-1.71-20.4.12-.82.58-1.02.54-.31z" style="opacity:.3;fill:#0098f2"/><path d="M18.56 8.69c-9.25 6.62-2.92 7.32 5.57 2.69 4.8-2.62.52-7.05-5.57-2.69zm26.25.02c-6.09-4.36-10.37.07-5.57 2.69 8.5 4.63 14.82 3.93 5.57-2.69z" style="fill:#d69600"/></svg>