<svg xmlns="http://www.w3.org/2000/svg" xml:space="preserve" style="enable-background:new 0 0 64 64" viewBox="0 0 64 64"><linearGradient id="a" x1="32" x2="32" y1="62" y2="2" gradientUnits="userSpaceOnUse"><stop offset="0" style="stop-color:#ff9500"/><stop offset=".192" style="stop-color:#ffad00"/><stop offset=".545" style="stop-color:#ffd500"/><stop offset=".827" style="stop-color:#ffed00"/><stop offset="1" style="stop-color:#fff600"/></linearGradient><circle cx="32" cy="32" r="30" style="fill:url(#a)"/><path d="M47.24 36.33C43.6 35.65 38.47 35 32 35c-6.47 0-11.61.65-15.25 1.33-1.84.34-2.84 1.87-2.75 3.41C14.45 47.49 20.4 54 32 54s17.55-6.51 17.99-14.27c.09-1.54-.91-3.06-2.75-3.4z" style="fill:#1a1626"/><path d="M23.47 50s3.79 2 8.53 2c4.74 0 8.53-2 8.53-2s-2.84-3-8.53-2c-5.68-1-8.53 2-8.53 2z" style="fill:#fd7383"/><linearGradient id="b" x1="16.012" x2="47.989" y1="39.498" y2="39.498" gradientUnits="userSpaceOnUse"><stop offset="0" style="stop-color:#cfd7e6"/><stop offset=".037" style="stop-color:#dae0ec"/><stop offset=".126" style="stop-color:#eef1f6"/><stop offset=".215" style="stop-color:#fbfcfd"/><stop offset=".3" style="stop-color:#fff"/><stop offset=".7" style="stop-color:#fff"/><stop offset=".785" style="stop-color:#fbfcfd"/><stop offset=".874" style="stop-color:#eef1f6"/><stop offset=".963" style="stop-color:#dae0ec"/><stop offset="1" style="stop-color:#cfd7e6"/></linearGradient><path d="M46.51 38.24C44 37.79 38.69 37 32 37c-6.69 0-12 .79-14.51 1.24-1.57.28-1.6.97-1.39 2.28.18 1.15.31 1.45 1.52 1.47 1.12.02 14.38 0 14.38 0s13.26.02 14.38 0c1.22-.02 1.34-.32 1.52-1.47.21-1.31.17-1.99-1.39-2.28z" style="fill:url(#b)"/><linearGradient id="c" x1="45.545" x2="40.811" y1="13.845" y2="39.102" gradientTransform="rotate(14.999 75.837 36.625)" gradientUnits="userSpaceOnUse"><stop offset="0" style="stop-color:#ff1c23"/><stop offset=".416" style="stop-color:#f31317"/><stop offset="1" style="stop-color:#db0100"/></linearGradient><path d="M49.02 12.29c-2.06-6.9-12.76-7.29-14.75.15-1.2 4.47 1.71 8.64 7.44 16.51 1.95 2.67 2.3 2.77 5.32 1.43 8.9-3.96 13.5-6.11 14.7-10.58 1.99-7.44-7.47-12.46-12.71-7.51z" style="fill:url(#c)"/><linearGradient id="d" x1="31.809" x2="27.075" y1="-12.49" y2="12.768" gradientTransform="rotate(-14.999 92.958 59.7)" gradientUnits="userSpaceOnUse"><stop offset="0" style="stop-color:#ff1c23"/><stop offset=".416" style="stop-color:#f31317"/><stop offset="1" style="stop-color:#db0100"/></linearGradient><path d="M14.98 12.29C9.75 7.34.28 12.36 2.27 19.8c1.2 4.47 5.8 6.62 14.7 10.58 3.02 1.34 3.38 1.25 5.32-1.42 5.73-7.88 8.64-12.04 7.44-16.52-1.99-7.44-12.7-7.05-14.75-.15z" style="fill:url(#d)"/></svg>