<svg xmlns="http://www.w3.org/2000/svg" xml:space="preserve" style="enable-background:new 0 0 64 64" viewBox="0 0 64 64"><linearGradient id="a" x1="-211.919" x2="-211.919" y1="275.935" y2="276.935" gradientTransform="matrix(60 0 0 -60 12747.15 16618.07)" gradientUnits="userSpaceOnUse"><stop offset="0" style="stop-color:#ff9500"/><stop offset=".192" style="stop-color:#ffad00"/><stop offset=".545" style="stop-color:#ffd500"/><stop offset=".827" style="stop-color:#ffed00"/><stop offset="1" style="stop-color:#fff600"/></linearGradient><circle cx="32" cy="32" r="30" style="fill:url(#a)"/><circle cx="43" cy="31" r="7" style="fill:#fff"/><path d="M43 26.33c2.58 0 4.67 2.09 4.67 4.67s-2.09 4.67-4.67 4.67-4.67-2.09-4.67-4.67 2.09-4.67 4.67-4.67z" style="fill:#1a1626"/><path d="M44.21 31.95c1.21 0 2.19 1.13 2.19 2.53s-.98 2.53-2.19 2.53-2.19-1.13-2.19-2.53.98-2.53 2.19-2.53z" style="fill:#fff"/><ellipse cx="41.27" cy="31" rx="1.28" ry="1.48" style="fill:#fff"/><circle cx="21" cy="31" r="7" style="fill:#fff"/><path d="M21 26.33c2.58 0 4.67 2.09 4.67 4.67s-2.09 4.67-4.67 4.67-4.67-2.09-4.67-4.67 2.09-4.67 4.67-4.67z" style="fill:#1a1626"/><path d="M22.21 31.95c1.21 0 2.19 1.13 2.19 2.53s-.98 2.53-2.19 2.53-2.19-1.13-2.19-2.53.98-2.53 2.19-2.53z" style="fill:#fff"/><ellipse cx="19.27" cy="31" rx="1.28" ry="1.48" style="fill:#fff"/><path d="M24.89 51.23c3.66-2.57 10.26-2.74 14.21 0 .92.63 2.43.19 2.09-.55-3.46-7.54-14.95-7.52-18.4 0-.33.74 1.19 1.19 2.1.55z" style="fill:#1a1626"/><path d="M13.71 17.22c-8.63 7.4-2.27 7.55 5.79 2.19 4.54-3.03-.11-7.07-5.79-2.19zm36.58.01c-5.68-4.87-10.33-.83-5.79 2.19 8.07 5.37 14.43 5.21 5.79-2.19z" style="fill:#d69600"/><radialGradient id="b" cx="918.693" cy="-127.215" r="2.32" fx="918.693" fy="-125.534" gradientTransform="matrix(3.154 0 0 4.4839 -2880.283 618.634)" gradientUnits="userSpaceOnUse"><stop offset="0" style="stop-color:#73efff"/><stop offset=".187" style="stop-color:#6fecff"/><stop offset=".364" style="stop-color:#64e3ff"/><stop offset=".537" style="stop-color:#51d3ff"/><stop offset=".707" style="stop-color:#36bdff"/><stop offset=".874" style="stop-color:#14a1ff"/><stop offset=".956" style="stop-color:#0091ff"/></radialGradient><path d="M17.88 41.86c-.4-1.15-1.01-1.15-1.41 0-1.16 3.38-4.7 7.95-4.7 11.91 0 2.89 2.42 5.23 5.4 5.23 2.98 0 5.4-2.34 5.4-5.23 0-3.95-3.54-8.58-4.69-11.91z" style="fill:url(#b)"/><linearGradient id="c" x1="835.927" x2="838.588" y1="-129.098" y2="-131.449" gradientTransform="matrix(2.7319 0 0 3.0921 -2270.3 451.847)" gradientUnits="userSpaceOnUse"><stop offset=".053" style="stop-color:#c4eeff;stop-opacity:0"/><stop offset=".45" style="stop-color:#cdf0ff;stop-opacity:.4197"/><stop offset="1" style="stop-color:#d4f2ff"/></linearGradient><path d="M17.61 41.59c-.14-.52-.73-.52-.87 0-.72 2.7-3.23 7.19-3.23 10.36 0 3.81 7.32 3.81 7.32 0 .01-3.16-2.51-7.69-3.22-10.36z" style="fill:url(#c)"/></svg>